<?xml version="1.0" encoding="UTF-8"?>
<svg version="1.1" xmlns="http://www.w3.org/2000/svg" width="200" height="200">
<path d="M0 0 C0.82978363 -0.00043808 1.65956726 -0.00087616 2.51449585 -0.00132751 C5.24712963 0.00075636 7.97914381 0.02406828 10.71166992 0.04760742 C12.61024134 0.05320481 14.5088171 0.05747423 16.40739441 0.06047058 C21.39696276 0.07190811 26.38626786 0.10136597 31.37573242 0.13458252 C36.47009724 0.16530689 41.56450472 0.17898098 46.65893555 0.1940918 C56.64928539 0.22623666 66.63944011 0.27741988 76.62963867 0.34057617 C77.77120333 2.57416991 78.90733626 4.81025831 80.04052734 7.0480957 C80.52340839 7.99088127 80.52340839 7.99088127 81.01604462 8.95271301 C86.94334421 20.69510995 85.95001328 33.16631744 85.78417969 46.02026367 C85.66230046 57.23746674 86.80700381 65.88615914 91.94384766 75.94726562 C98.81276145 89.7736281 99.27589458 106.52983192 95.62963867 121.34057617 C92.66290961 129.27335171 88.72946194 137.5356915 83.62963867 144.34057617 C82.96963867 144.34057617 82.30963867 144.34057617 81.62963867 144.34057617 C81.40276367 144.89745117 81.17588867 145.45432617 80.94213867 146.02807617 C79.62364135 148.35114287 78.0980748 149.89156801 76.19213867 151.73510742 C74.18895096 153.7933828 72.3431176 155.94622554 70.50463867 158.15307617 C69.84206055 158.94327148 69.17948242 159.7334668 68.49682617 160.54760742 C63.70329013 167.71785484 62.39353173 176.25037572 60.69995117 184.56323242 C60.50401367 185.44881836 60.30807617 186.3344043 60.10620117 187.24682617 C59.94200684 188.03379883 59.7778125 188.82077148 59.60864258 189.6315918 C59.28557129 190.52555664 58.9625 191.41952148 58.62963867 192.34057617 C58.44056946 193.02194138 58.25150024 193.70330658 58.05670166 194.40531921 C56.92746661 197.18135215 56.02499431 198.50207952 53.62963867 200.34057617 C47.63838016 201.57138867 41.69191198 201.39318158 35.59838867 201.29760742 C33.80147428 201.29537692 32.00455438 201.29596241 30.2076416 201.29924011 C26.44452964 201.297498 22.68294418 201.26840984 18.92016602 201.21875 C14.10102153 201.15638041 9.28396062 201.15147315 4.46450043 201.16573048 C0.75483377 201.1721472 -2.95436327 201.15337248 -6.66392517 201.12647057 C-8.44047781 201.11560404 -10.2170834 201.11131169 -11.9936676 201.11374855 C-14.47894399 201.11231844 -16.96167532 201.07826845 -19.4465332 201.03515625 C-20.17811142 201.04056427 -20.90968964 201.04597229 -21.66343689 201.05154419 C-25.60221483 200.94495224 -27.25892328 200.4305533 -30.36560059 197.92216492 C-32.37036133 195.34057617 -32.37036133 195.34057617 -32.37036133 193.34057617 C-33.03036133 193.34057617 -33.69036133 193.34057617 -34.37036133 193.34057617 C-38.16889438 187.86828317 -41.16921914 181.83774864 -44.05566406 175.84399414 C-48.82363405 165.97364604 -53.79698184 160.63373542 -62.47460938 154.10131836 C-76.21407365 143.71750321 -84.45888117 130.42992554 -87.68286133 113.34057617 C-90.45952258 92.94279543 -86.26499216 72.9673024 -74.24536133 56.15307617 C-65.47578284 45.20223197 -55.30258934 36.08079339 -44.12866211 27.66674805 C-41.74199638 25.86664138 -39.37593936 24.04032003 -37.0090332 22.21435547 C-35.41209698 20.98342199 -33.81128307 19.75752384 -32.21020508 18.53198242 C-30.32112952 17.07425011 -28.45840799 15.58169608 -26.62426758 14.05541992 C-24.37036133 12.34057617 -24.37036133 12.34057617 -22.37036133 12.34057617 C-22.37036133 11.68057617 -22.37036133 11.02057617 -22.37036133 10.34057617 C-20.90942383 9.05151367 -20.90942383 9.05151367 -18.99536133 7.71557617 C-18.36887695 7.26956055 -17.74239258 6.82354492 -17.09692383 6.36401367 C-15.37036133 5.34057617 -15.37036133 5.34057617 -13.37036133 5.34057617 C-13.37036133 4.68057617 -13.37036133 4.02057617 -13.37036133 3.34057617 C-9.18843029 -0.05199944 -5.1565575 -0.07159518 0 0 Z " fill="#A30AFE" transform="translate(89.370361328125,-0.340576171875)"/>
<path d="M0 0 C0.79198288 0.00424484 1.58396576 0.00848969 2.39994812 0.01286316 C4.91672502 0.02958712 7.43268599 0.0672265 9.94921875 0.10546875 C11.66079568 0.12052376 13.37238524 0.13421074 15.08398438 0.14648438 C19.26854108 0.1794699 23.45249182 0.23120777 27.63671875 0.29296875 C27.63671875 0.62296875 27.63671875 0.95296875 27.63671875 1.29296875 C26.99347656 1.42832031 26.35023437 1.56367188 25.6875 1.703125 C18.59142565 3.39363059 12.71569468 6.16384064 6.38671875 9.76953125 C3.63671875 11.29296875 3.63671875 11.29296875 0.63671875 12.29296875 C0.63671875 12.95296875 0.63671875 13.61296875 0.63671875 14.29296875 C-3.74789663 17.29296875 -3.74789663 17.29296875 -6.36328125 17.29296875 C-6.36328125 17.95296875 -6.36328125 18.61296875 -6.36328125 19.29296875 C-8.27734375 20.8515625 -8.27734375 20.8515625 -10.98828125 22.73046875 C-49.22028659 48.94026916 -49.22028659 48.94026916 -70.9609375 88.2265625 C-72.97308058 103.56182772 -71.35840154 117.59092472 -62.48046875 130.66015625 C-56.93757959 137.55297413 -49.98372809 143.13378296 -42.7265625 148.13671875 C-42.05173828 148.7090625 -42.05173828 148.7090625 -41.36328125 149.29296875 C-41.36328125 149.95296875 -41.36328125 150.61296875 -41.36328125 151.29296875 C-40.79351562 151.46828125 -40.22375 151.64359375 -39.63671875 151.82421875 C-36.23810165 154.0198889 -34.82462206 157.30332435 -32.98828125 160.79296875 C-32.20178917 162.24417769 -31.41402752 163.69469928 -30.625 165.14453125 C-30.24263184 165.85254883 -29.86026367 166.56056641 -29.46630859 167.29003906 C-27.55523403 170.76025945 -25.45948232 174.11476108 -23.359375 177.47265625 C-22.36328125 179.29296875 -22.36328125 179.29296875 -22.36328125 181.29296875 C-21.70328125 181.29296875 -21.04328125 181.29296875 -20.36328125 181.29296875 C-18.67595848 183.27557301 -17.00962068 185.27620295 -15.36328125 187.29296875 C-14.70328125 187.62296875 -14.04328125 187.95296875 -13.36328125 188.29296875 C-13.36328125 188.95296875 -13.36328125 189.61296875 -13.36328125 190.29296875 C-12.68265625 190.54046875 -12.00203125 190.78796875 -11.30078125 191.04296875 C-8.49337583 192.23760935 -5.98137101 193.66678407 -3.40234375 195.29296875 C4.66187373 199.24783403 14.70335234 199.78906114 23.36328125 197.60546875 C25.62374683 196.673318 27.58353543 195.61706248 29.63671875 194.29296875 C30.24773437 193.926875 30.85875 193.56078125 31.48828125 193.18359375 C40.68461902 186.62056856 44.4440209 172.6608925 48.375 162.47265625 C49.35864574 159.99374717 50.39001167 157.64590887 51.63671875 155.29296875 C52.29671875 155.29296875 52.95671875 155.29296875 53.63671875 155.29296875 C53.87519531 154.74640625 54.11367187 154.19984375 54.359375 153.63671875 C55.95370245 150.71134728 57.93718365 148.34758542 60.07421875 145.79296875 C63.29010171 141.95169486 63.29010171 141.95169486 66.296875 137.94921875 C66.73902344 137.40265625 67.18117187 136.85609375 67.63671875 136.29296875 C68.29671875 136.29296875 68.95671875 136.29296875 69.63671875 136.29296875 C70.0234375 135.26236328 70.0234375 135.26236328 70.41796875 134.2109375 C71.80352103 130.89360559 73.45687511 127.78364751 75.13671875 124.60546875 C80.75170743 113.64150238 81.94572741 103.77474594 78.828125 91.81640625 C77.13754273 86.81671704 74.88719887 82.13712464 72.50585938 77.43212891 C69.43789952 71.28893224 67.0020951 65.29302609 68.01171875 58.29296875 C68.6722369 51.91611452 68.86426005 45.57404986 68.94921875 39.16796875 C68.99344971 37.64816406 68.99344971 37.64816406 69.03857422 36.09765625 C69.10819831 27.36764712 67.08787795 19.7328278 61.57421875 12.79296875 C61.08824219 12.16390625 60.60226563 11.53484375 60.1015625 10.88671875 C58.53025593 9.05065881 58.53025593 9.05065881 55.63671875 7.29296875 C55.63671875 6.63296875 55.63671875 5.97296875 55.63671875 5.29296875 C55.0746875 5.16019531 54.51265625 5.02742187 53.93359375 4.890625 C51.54305722 4.26859764 49.226361 3.52181834 46.88671875 2.73046875 C45.68789063 2.32634766 45.68789063 2.32634766 44.46484375 1.9140625 C43.8615625 1.70910156 43.25828125 1.50414063 42.63671875 1.29296875 C42.63671875 0.96296875 42.63671875 0.63296875 42.63671875 0.29296875 C53.85671875 0.29296875 65.07671875 0.29296875 76.63671875 0.29296875 C85.14640923 17.3123497 86.02496082 27.85822786 85.79125977 45.97265625 C85.66938054 57.18985932 86.81408389 65.83855172 91.95092773 75.8996582 C98.81984153 89.72602068 99.28297466 106.4822245 95.63671875 121.29296875 C92.66998969 129.22574429 88.73654202 137.48808408 83.63671875 144.29296875 C82.97671875 144.29296875 82.31671875 144.29296875 81.63671875 144.29296875 C81.40984375 144.84984375 81.18296875 145.40671875 80.94921875 145.98046875 C79.63072143 148.30353545 78.10515488 149.84396059 76.19921875 151.6875 C74.19603104 153.74577538 72.35019768 155.89861812 70.51171875 158.10546875 C69.84914062 158.89566406 69.1865625 159.68585938 68.50390625 160.5 C63.71037021 167.67024742 62.40061181 176.2027683 60.70703125 184.515625 C60.51109375 185.40121094 60.31515625 186.28679687 60.11328125 187.19921875 C59.94908691 187.98619141 59.78489258 188.77316406 59.61572266 189.58398438 C59.29265137 190.47794922 58.96958008 191.37191406 58.63671875 192.29296875 C58.44764954 192.97433395 58.25858032 193.65569916 58.06378174 194.35771179 C56.93454669 197.13374473 56.03207439 198.4544721 53.63671875 200.29296875 C47.64546024 201.52378125 41.69899206 201.34557415 35.60546875 201.25 C33.80855436 201.2477695 32.01163446 201.24835499 30.21472168 201.25163269 C26.45160972 201.24989058 22.69002426 201.22080242 18.92724609 201.17114258 C14.10810161 201.10877299 9.2910407 201.10386573 4.47158051 201.11812305 C0.76191385 201.12453978 -2.94728319 201.10576506 -6.65684509 201.07886314 C-8.43339773 201.06799662 -10.21000332 201.06370427 -11.98658752 201.06614113 C-14.47186391 201.06471102 -16.95459524 201.03066103 -19.43945312 200.98754883 C-20.17103134 200.99295685 -20.90260956 200.99836487 -21.65635681 201.00393677 C-25.59513475 200.89734481 -27.2518432 200.38294588 -30.35852051 197.8745575 C-32.36328125 195.29296875 -32.36328125 195.29296875 -32.36328125 193.29296875 C-33.02328125 193.29296875 -33.68328125 193.29296875 -34.36328125 193.29296875 C-38.16181431 187.82067575 -41.16213906 181.79014121 -44.04858398 175.79638672 C-48.81655397 165.92603862 -53.78990176 160.586128 -62.4675293 154.05371094 C-76.20699357 143.66989579 -84.45180109 130.38231812 -87.67578125 113.29296875 C-90.4524425 92.89518801 -86.25791209 72.91969497 -74.23828125 56.10546875 C-65.46870276 45.15462455 -55.29550926 36.03318597 -44.12158203 27.61914062 C-41.7349163 25.81903396 -39.36885928 23.99271261 -37.00195312 22.16674805 C-35.4050169 20.93581457 -33.804203 19.70991642 -32.203125 18.484375 C-30.31404944 17.02664269 -28.45132791 15.53408866 -26.6171875 14.0078125 C-24.36328125 12.29296875 -24.36328125 12.29296875 -22.36328125 12.29296875 C-22.36328125 11.63296875 -22.36328125 10.97296875 -22.36328125 10.29296875 C-20.90234375 9.00390625 -20.90234375 9.00390625 -18.98828125 7.66796875 C-18.36179687 7.22195312 -17.7353125 6.7759375 -17.08984375 6.31640625 C-15.36328125 5.29296875 -15.36328125 5.29296875 -13.36328125 5.29296875 C-13.36328125 4.63296875 -13.36328125 3.97296875 -13.36328125 3.29296875 C-9.18086926 -0.10553147 -5.15795483 -0.10485797 0 0 Z " fill="#A000FF" transform="translate(89.36328125,-0.29296875)"/>
<path d="M0 0 C3.39729245 2.2931724 4.33303665 4.33716414 5.125 8.25 C5.44796632 12.94070132 3.98136041 15.35209525 1.03125 18.8828125 C0.3609375 19.58148438 -0.309375 20.28015625 -1 21 C-1.49137451 21.51997559 -1.98274902 22.03995117 -2.48901367 22.57568359 C-6.77392928 27.00557065 -11.36233441 30.71864041 -16.3125 34.375 C-29.38049705 43.05489538 -29.38049705 43.05489538 -37.66796875 55.578125 C-39.118672 66.15972518 -38.95362171 76.13910149 -32.5390625 85.0234375 C-31.09153708 86.76487672 -29.59426861 88.39294314 -28 90 C-27.21625 90.804375 -26.4325 91.60875 -25.625 92.4375 C-25.08875 92.953125 -24.5525 93.46875 -24 94 C-37.1818151 90.29984138 -50.87231201 83.69788156 -58.39453125 71.79296875 C-62.4908485 63.99114898 -63.33266808 55.68097366 -61.31640625 47.0859375 C-58.71193827 39.41302354 -54.79025057 32.6848638 -49 27 C-49.59949463 27.12117188 -50.19898926 27.24234375 -50.81665039 27.3671875 C-53.56392759 27.91839195 -56.31314421 28.45926291 -59.0625 29 C-60.47692383 29.28617188 -60.47692383 29.28617188 -61.91992188 29.578125 C-75.12391493 32.15451389 -75.12391493 32.15451389 -79.4375 29.5 C-79.953125 29.005 -80.46875 28.51 -81 28 C-80.61268603 22.0156195 -78.95806999 18.83509942 -75.1875 14.25 C-74.74857422 13.68667969 -74.30964844 13.12335938 -73.85742188 12.54296875 C-70.16477307 7.90109522 -67.27293727 4.89171163 -61.31640625 4.0078125 C-60.39907715 3.8624707 -59.48174805 3.71712891 -58.53662109 3.56738281 C-57.55516113 3.42139648 -56.57370117 3.27541016 -55.5625 3.125 C-47.54766654 1.85328771 -39.73311184 0.27090435 -31.875 -1.75 C-20.70894472 -4.52935092 -10.27890086 -6.3715865 0 0 Z " fill="#E62A77" transform="translate(144,92)"/>
<path d="M0 0 C2.67748834 0.98174573 3.79742233 1.63978955 5.21484375 4.16015625 C8.26166013 15.18023341 6.25321865 24.31733104 0.921875 34.01171875 C-4.23993658 42.03770626 -10.80245074 47.77156106 -18.3125 53.5 C-35.93062881 66.86782562 -35.93062881 66.86782562 -52 82 C-52.845625 82.804375 -53.69125 83.60875 -54.5625 84.4375 C-61.13625278 91.33617643 -61.13625278 91.33617643 -65.1875 99.8125 C-65.30066453 103.10146568 -65.30066453 103.10146568 -63.0625 105.4375 C-62.0415625 106.2109375 -62.0415625 106.2109375 -61 107 C-67.93166561 107.51135238 -73.2672946 107.17932716 -79 103 C-84.87606065 97.73686177 -87.63301767 91.85331451 -88.375 84.0625 C-87.84006305 73.8986979 -83.08821583 67.98532237 -76 61 C-75.36578125 60.36707031 -74.7315625 59.73414063 -74.078125 59.08203125 C-68.33930824 53.69902113 -61.91405045 49.18559087 -55.56933594 44.55566406 C-36.37377699 30.53927023 -18.08395593 15.41067549 0 0 Z " fill="#0181C8" transform="translate(129,17)"/>
<path d="M0 0 C4.14319649 3.87589349 5.15000667 6.55993621 5.44433594 12.24291992 C5.79698597 25.35438618 0.68278929 34.79054605 -8.23046875 44.40625 C-11.74304339 47.69588267 -15.48851472 50.58378207 -19.3125 53.5 C-25.52088031 58.27974011 -31.67644091 63.11234476 -37.75 68.0625 C-38.71353394 68.84753906 -38.71353394 68.84753906 -39.6965332 69.6484375 C-43.48376639 72.74258553 -47.24775358 75.86353636 -51 79 C-56.59773371 73.69688385 -56.59773371 73.69688385 -58 70 C-58 69.34 -58 68.68 -58 68 C-59.32 67.67 -60.64 67.34 -62 67 C-62 64 -62 64 -60.48046875 62.44921875 C-59.72378906 61.86785156 -58.96710938 61.28648438 -58.1875 60.6875 C-57.27742188 59.98367187 -56.36734375 59.27984375 -55.4296875 58.5546875 C-52.84929402 56.61744109 -50.24332477 54.71672335 -47.6328125 52.8203125 C-28.47881358 39.14837504 -28.47881358 39.14837504 -12.19921875 22.29296875 C-11.80347656 21.86628906 -11.40773437 21.43960938 -11 21 C-10.34 21 -9.68 21 -9 21 C-8.73316406 20.30003906 -8.46632812 19.60007812 -8.19140625 18.87890625 C-6.47950199 14.74227203 -4.39091817 10.81662129 -2.33984375 6.83984375 C-1.24021377 4.50914115 -0.4880942 2.51278126 0 0 Z " fill="#3EBEEC" transform="translate(130,17)"/>
<path d="M0 0 C0.495 1.98 0.495 1.98 1 4 C-5.54347255 8.7503094 -12.27108777 13.11193737 -19.20117188 17.27099609 C-23.34820935 19.8047248 -26.97164493 22.5655253 -30.5480957 25.86108398 C-32 27 -32 27 -34 27 C-34 27.66 -34 28.32 -34 29 C-58.55516014 35.74448399 -58.55516014 35.74448399 -66 35 C-68.4375 33.5 -68.4375 33.5 -70 32 C-69.61268603 26.0156195 -67.95806999 22.83509942 -64.1875 18.25 C-63.74857422 17.68667969 -63.30964844 17.12335938 -62.85742188 16.54296875 C-59.16477307 11.90109522 -56.27293727 8.89171163 -50.31640625 8.0078125 C-48.9401709 7.7897998 -48.9401709 7.7897998 -47.53613281 7.56738281 C-46.06418457 7.34840332 -46.06418457 7.34840332 -44.5625 7.125 C-36.51179404 5.8457727 -28.64739358 4.26780776 -20.75 2.25 C-13.75547679 0.48286001 -7.26242117 -0.76536054 0 0 Z " fill="#652A8A" transform="translate(133,88)"/>
<path d="M0 0 C1.17784509 2.85558955 1.03723039 3.90469545 -0.109375 6.83984375 C-0.92148438 8.37318359 -0.92148438 8.37318359 -1.75 9.9375 C-2.28109375 10.95714844 -2.8121875 11.97679687 -3.359375 13.02734375 C-6.17086421 18.12149444 -8.77574212 21.96348692 -13 26 C-13.56589844 26.58652344 -14.13179687 27.17304687 -14.71484375 27.77734375 C-22.56481898 35.88416889 -31.45614287 42.65059051 -40.4375 49.4375 C-41.12392578 49.95795898 -41.81035156 50.47841797 -42.51757812 51.01464844 C-43.17048828 51.50352539 -43.82339844 51.99240234 -44.49609375 52.49609375 C-45.07544678 52.93107178 -45.6547998 53.3660498 -46.25170898 53.81420898 C-48.09855068 55.06684271 -49.98510028 56.04571919 -52 57 C-51.79503906 56.43796875 -51.59007813 55.8759375 -51.37890625 55.296875 C-50.88980087 52.33198876 -51.63744214 50.92890711 -52.9375 48.25 C-53.50791016 47.05117187 -53.50791016 47.05117187 -54.08984375 45.828125 C-54.39019531 45.22484375 -54.69054687 44.6215625 -55 44 C-53.44152344 42.83984375 -53.44152344 42.83984375 -51.8515625 41.65625 C-44.12896243 35.89493045 -36.471106 30.08595204 -29 24 C-27.76460895 23.00224991 -26.52890558 22.00488645 -25.29296875 21.0078125 C-16.76503745 14.11686608 -8.33556403 7.12233982 0 0 Z " fill="#03A9E8" transform="translate(129,17)"/>
<path d="M0 0 C4.14319649 3.87589349 5.15000667 6.55993621 5.44433594 12.24291992 C5.79762984 25.37832511 0.65815144 34.78700261 -8.25 44.4375 C-15.12465163 50.84342539 -15.12465163 50.84342539 -19 53 C-19.99 52.67 -20.98 52.34 -22 52 C-23 49 -23 49 -23 45 C-23.495 43.515 -23.495 43.515 -24 42 C-23.505 41.505 -23.505 41.505 -23 41 C-23.66 40.34 -24.32 39.68 -25 39 C-24.34 39 -23.68 39 -23 39 C-22.94714844 38.31550781 -22.89429687 37.63101563 -22.83984375 36.92578125 C-21.66899001 32.84685358 -19.32699728 30.33839461 -16.5625 27.1875 C-16.05912109 26.59001953 -15.55574219 25.99253906 -15.03710938 25.37695312 C-13.7424278 23.87250907 -12.37599631 22.43044974 -11 21 C-10.34 21 -9.68 21 -9 21 C-8.73316406 20.30003906 -8.46632813 19.60007812 -8.19140625 18.87890625 C-6.47950199 14.74227203 -4.39091817 10.81662129 -2.33984375 6.83984375 C-1.24021377 4.50914115 -0.4880942 2.51278126 0 0 Z " fill="#58CFE6" transform="translate(130,17)"/>
<path d="M0 0 C4.28534154 2.14267077 5.33192666 3.62130748 7 8 C9.52056045 10.77152212 9.52056045 10.77152212 12 13 C10.42772544 16.85921938 7.92259443 19.07740557 5 22 C1.38199208 26.06165371 -1.55527965 29.57221363 -3.1875 34.8125 C-3.30066453 38.10146568 -3.30066453 38.10146568 -1.0625 40.4375 C-0.0415625 41.2109375 -0.0415625 41.2109375 1 42 C-5.40546304 42.3479829 -10.41559345 42.37391229 -16 39 C-18.76687742 34.90983338 -18.70144698 29.76526482 -18 25 C-14.96385501 15.29402585 -7.06752233 7.06752233 0 0 Z " fill="#1B86C9" transform="translate(67,82)"/>
<path d="M0 0 C6.03401088 1.64929631 10.82859736 3.20288697 15 8 C16.21703549 11.12014492 16.51042284 13.68779964 16 17 C14.4547521 20.11932506 12.3836374 22.48336995 10 25 C9.39929688 25.65484375 8.79859375 26.3096875 8.1796875 26.984375 C5.29134213 30.01026063 2.84756915 32.26943396 -1 34 C-3.83374881 30.79663178 -4.5205537 28.21912747 -5 24 C-7.31 24.66 -9.62 25.32 -12 26 C-14.22825644 23.77174356 -14.69239369 22.34238372 -15.625 19.375 C-15.88539062 18.55773437 -16.14578125 17.74046875 -16.4140625 16.8984375 C-16.60742188 16.27195312 -16.80078125 15.64546875 -17 15 C-16.48501953 14.68772461 -15.97003906 14.37544922 -15.43945312 14.05371094 C-13.11689293 12.63390151 -10.80858691 11.19240804 -8.5 9.75 C-7.28376953 9.01330078 -7.28376953 9.01330078 -6.04296875 8.26171875 C-5.27597656 7.77832031 -4.50898438 7.29492188 -3.71875 6.796875 C-3.00654297 6.35698242 -2.29433594 5.91708984 -1.56054688 5.46386719 C-1.04556641 4.98079102 -0.53058594 4.49771484 0 4 C0 2.68 0 1.36 0 0 Z " fill="#9F1E66" transform="translate(133,88)"/>
<path d="M0 0 C0 0.99 0 1.98 0 3 C0.66 3.33 1.32 3.66 2 4 C2.98334755 6.85170789 3 8.89640609 3 12 C0.7265625 14.04296875 0.7265625 14.04296875 -2.375 16.1875 C-3.4818233 16.97806458 -4.58594759 17.77241998 -5.6875 18.5703125 C-6.244375 18.97282227 -6.80125 19.37533203 -7.375 19.79003906 C-14.31845636 24.96007658 -20.18252385 30.81295224 -25 38 C-26.9609375 37.22265625 -26.9609375 37.22265625 -29 36 C-29.40729228 33.67843403 -29.74438677 31.3431213 -30 29 C-30.66 28.67 -31.32 28.34 -32 28 C-29.60088157 16.00440787 -14.3429131 7.46812219 -4.91015625 1.03125 C-3 0 -3 0 0 0 Z " fill="#EF397D" transform="translate(128,112)"/>
<path d="M0 0 C0.12375 0.9075 0.2475 1.815 0.375 2.75 C0.81759516 5.90603635 0.81759516 5.90603635 2.125 8.125 C3.25927344 10.55558594 2.83550396 11.49348813 2 14 C1.03709138 17.7553436 1.15789588 20.2356689 2 24 C-12.82216495 27.34020619 -12.82216495 27.34020619 -17.4375 24.5 C-17.953125 24.005 -18.46875 23.51 -19 23 C-18.61268603 17.0156195 -16.95806999 13.83509942 -13.1875 9.25 C-12.74857422 8.68667969 -12.30964844 8.12335938 -11.85742188 7.54296875 C-5.85692782 0 -5.85692782 0 0 0 Z " fill="#52287A" transform="translate(82,97)"/>
<path d="M0 0 C4.21549578 2.33743837 5.29984842 3.5371021 7 8 C9.52056045 10.77152212 9.52056045 10.77152212 12 13 C10.13916819 17.56749627 6.96311877 20.88579746 2.6875 23.3125 C2.130625 23.539375 1.57375 23.76625 1 24 C0.113125 23.195625 -0.77375 22.39125 -1.6875 21.5625 C-4.38287032 19.2960841 -6.42063478 18.31582634 -10 18 C-10.83984375 15.3984375 -10.83984375 15.3984375 -11 12 C-9.24345903 9.55689225 -7.67807288 7.69708469 -5.5625 5.625 C-5.03333984 5.07972656 -4.50417969 4.53445312 -3.95898438 3.97265625 C-2.65478412 2.63320734 -1.32936555 1.31447666 0 0 Z " fill="#2B9ED8" transform="translate(67,82)"/>
<path d="M0 0 C0.66 0.33 1.32 0.66 2 1 C1.67 1.66 1.34 2.32 1 3 C3.16034872 5.48440102 4.70316202 6.58789525 8 7 C8.99 6.67 9.98 6.34 11 6 C12.32 7.32 13.64 8.64 15 10 C10.66666667 14.33333333 6.33333333 18.66666667 2 23 C-4.70459519 17.9059081 -4.70459519 17.9059081 -5.9375 14.125 C-5.958125 13.42375 -5.97875 12.7225 -6 12 C-7.32 11.67 -8.64 11.34 -10 11 C-10 10.01 -10 9.02 -10 8 C-7.8125 5.95703125 -7.8125 5.95703125 -5 3.8125 C-4.071875 3.09707031 -3.14375 2.38164063 -2.1875 1.64453125 C-1.1046875 0.83048828 -1.1046875 0.83048828 0 0 Z " fill="#36B2E5" transform="translate(78,73)"/>
<path d="M0 0 C3.32933241 3.65152587 4.48998516 6.10385755 5 11 C5.268125 11.78375 5.53625 12.5675 5.8125 13.375 C6.02703324 16.37846533 5.50246677 17.1844254 4.0625 19.75 C0.96196517 25.39511169 1.31398801 30.91390794 3 37 C-2.82893387 33.02572691 -5.15736812 28.78754793 -7 22 C-8.18834209 14.78983451 -5.98609535 7.78053349 -1.8125 1.9375 C-1.214375 1.298125 -0.61625 0.65875 0 0 Z " fill="#046BAF" transform="translate(48,83)"/>
<path d="M0 0 C1.17784509 2.85558955 1.03723039 3.90469545 -0.109375 6.83984375 C-0.65078125 7.86207031 -1.1921875 8.88429688 -1.75 9.9375 C-2.28109375 10.95714844 -2.8121875 11.97679687 -3.359375 13.02734375 C-7.73508558 20.95571459 -13.1127466 26.22423418 -20 32 C-20.53190541 30.56656 -21.05015258 29.12804633 -21.5625 27.6875 C-21.85253906 26.88699219 -22.14257812 26.08648437 -22.44140625 25.26171875 C-23 23 -23 23 -22 20 C-20.5778845 18.79910246 -19.15290378 17.59885273 -17.66796875 16.4765625 C-15.85369665 14.9614341 -15.85369665 14.9614341 -14.15625 12.6328125 C-11.78423665 9.73654982 -9.23901758 7.57871092 -6.3125 5.25 C-5.33925781 4.47140625 -4.36601563 3.6928125 -3.36328125 2.890625 C-2.58339844 2.26671875 -1.80351563 1.6428125 -1 1 C-0.67 0.67 -0.34 0.34 0 0 Z " fill="#02BDE1" transform="translate(129,17)"/>
<path d="M0 0 C1.29018317 2.58036633 0.69399325 3.23334234 0 6 C-0.78440495 16.93023293 -0.24269814 26.16170326 7 34.875 C7.98418333 35.93162322 8.98304096 36.97488354 10 38 C10.78375 38.804375 11.5675 39.60875 12.375 40.4375 C12.91125 40.953125 13.4475 41.46875 14 42 C10.97147805 41.07461829 7.98275 40.06361628 5 39 C4.26136719 38.74476563 3.52273437 38.48953125 2.76171875 38.2265625 C-1.19000231 36.60419867 -3.48435888 34.94410949 -5.5 31.125 C-8.14123003 23.891361 -8.5440788 15.88081526 -5.68359375 8.69140625 C-2.15748588 2.15748588 -2.15748588 2.15748588 0 0 Z " fill="#8F1952" transform="translate(106,144)"/>
<path d="M0 0 C-2.08111307 1.46159097 -4.16474461 2.91933992 -6.25 4.375 C-6.83652344 4.7875 -7.42304687 5.2 -8.02734375 5.625 C-10.92995082 7.64704088 -13.76947715 9.54466545 -17 11 C-17 11.66 -17 12.32 -17 13 C-18.55966218 13.508783 -20.12289241 14.00663469 -21.6875 14.5 C-22.55761719 14.7784375 -23.42773438 15.056875 -24.32421875 15.34375 C-26.99391677 15.99850805 -29.26396684 16.11831495 -32 16 C-33.60367292 13.45299007 -34.06442578 12.38598454 -33.55859375 9.35546875 C-33.37425781 8.57816406 -33.18992187 7.80085938 -33 7 C-4.71267252 -1.57089084 -4.71267252 -1.57089084 0 0 Z " fill="#7C2D8C" transform="translate(116,104)"/>
<path d="M0 0 C0.66 0 1.32 0 2 0 C3.56523726 3.3066484 4.69131056 6.33758295 5 10 C3.31838432 13.37503217 0.83623913 15.56447722 -2 18 C-2.67160156 18.60328125 -3.34320313 19.2065625 -4.03515625 19.828125 C-5.65885477 21.25511261 -7.32546082 22.63302924 -9 24 C-12.73155158 20.87031158 -13.36683064 18.74877018 -14 14 C-14.66 13.67 -15.32 13.34 -16 13 C-15.01257813 12.31292969 -14.02515625 11.62585938 -13.0078125 10.91796875 C-11.71334632 10.00809035 -10.41908619 9.09791876 -9.125 8.1875 C-8.47402344 7.73568359 -7.82304687 7.28386719 -7.15234375 6.81835938 C-6.52714844 6.37685547 -5.90195313 5.93535156 -5.2578125 5.48046875 C-4.6817627 5.07723389 -4.10571289 4.67399902 -3.51220703 4.25854492 C-1.71999926 2.88842132 -1.71999926 2.88842132 0 0 Z " fill="#B02167" transform="translate(142,98)"/>
<path d="M0 0 C-0.185625 0.886875 -0.37125 1.77375 -0.5625 2.6875 C-1.13016727 6.98555219 -0.35470237 9.93589289 1 14 C1 16.33333333 1 18.66666667 1 21 C-0.75 22.38671875 -0.75 22.38671875 -3 23.6875 C-4.11375 24.34298828 -4.11375 24.34298828 -5.25 25.01171875 C-6.11625 25.50091797 -6.11625 25.50091797 -7 26 C-11.57317073 19.29268293 -11.57317073 19.29268293 -13 16 C-13.4640625 15.071875 -13.4640625 15.071875 -13.9375 14.125 C-14.02546927 11.13404467 -12.55280253 9.73199885 -10.60546875 7.59375 C-2.95588235 0 -2.95588235 0 0 0 Z " fill="#4CC7EC" transform="translate(108,51)"/>
<path d="M0 0 C2.3206009 1.31864123 2.64505491 2.40909804 3.43359375 4.9296875 C3.66433594 5.63996094 3.89507812 6.35023437 4.1328125 7.08203125 C4.33519531 7.71238281 4.53757812 8.34273437 4.74609375 8.9921875 C5.07609375 9.6521875 5.40609375 10.3121875 5.74609375 10.9921875 C3.97877926 12.3094219 2.20711614 13.62082338 0.43359375 14.9296875 C-0.55253906 15.66058594 -1.53867188 16.39148438 -2.5546875 17.14453125 C-5.25390625 18.9921875 -5.25390625 18.9921875 -8.25390625 19.9921875 C-10.25390625 18.9921875 -10.25390625 18.9921875 -11.10546875 16.48828125 C-11.36070313 15.47894531 -11.6159375 14.46960938 -11.87890625 13.4296875 C-12.13929687 12.41777344 -12.3996875 11.40585938 -12.66796875 10.36328125 C-12.86132812 9.58082031 -13.0546875 8.79835938 -13.25390625 7.9921875 C-11.51585284 6.62272128 -9.76299392 5.27202796 -8.00390625 3.9296875 C-7.029375 3.17558594 -6.05484375 2.42148438 -5.05078125 1.64453125 C-2.25390625 -0.0078125 -2.25390625 -0.0078125 0 0 Z " fill="#CF296F" transform="translate(116.25390625,104.0078125)"/>
<path d="M0 0 C0.54140625 0.23589844 1.0828125 0.47179687 1.640625 0.71484375 C1.640625 2.03484375 1.640625 3.35484375 1.640625 4.71484375 C2.300625 5.04484375 2.960625 5.37484375 3.640625 5.71484375 C4.300625 7.03484375 4.960625 8.35484375 5.640625 9.71484375 C1.680625 12.35484375 -2.279375 14.99484375 -6.359375 17.71484375 C-10.359375 15.71484375 -10.359375 15.71484375 -11.40625 13.55078125 C-11.63828125 12.73867187 -11.8703125 11.9265625 -12.109375 11.08984375 C-12.35171875 10.27257812 -12.5940625 9.4553125 -12.84375 8.61328125 C-13.09898438 7.67355469 -13.09898438 7.67355469 -13.359375 6.71484375 C-11.61979359 5.51213316 -9.86727755 4.32811365 -8.109375 3.15234375 C-6.64757812 2.16041016 -6.64757812 2.16041016 -5.15625 1.1484375 C-2.359375 -0.28515625 -2.359375 -0.28515625 0 0 Z " fill="#AA2065" transform="translate(129.359375,96.28515625)"/>
<path d="M0 0 C0.72750788 1.40691607 1.43140353 2.82606022 2.125 4.25 C2.51945312 5.03890625 2.91390625 5.8278125 3.3203125 6.640625 C4 9 4 9 3.328125 11.08984375 C1.91553315 13.12148321 0.48242356 14.67812949 -1.375 16.3125 C-1.96023437 16.84488281 -2.54546875 17.37726563 -3.1484375 17.92578125 C-5 19 -5 19 -7.2265625 18.66796875 C-7.81179687 18.44753906 -8.39703125 18.22710937 -9 18 C-11.74193548 9.77419355 -11.74193548 9.77419355 -10 6 C-3.47142857 0 -3.47142857 0 0 0 Z " fill="#028DD6" transform="translate(75,62)"/>
<path d="M0 0 C0 3 0 3 -1.3125 4.38671875 C-2.875 5.59114583 -4.4375 6.79557292 -6 8 C-4.55746343 4.63408134 -2.66735273 2.48952921 0 0 Z M-7 8 C-6.13375 8.78375 -5.2675 9.5675 -4.375 10.375 C-1.43576626 12.84061313 1.27552312 13.98423358 5 15 C5.66 15.33 6.32 15.66 7 16 C6.40072174 19.35595828 5.15377564 21.37801226 3 24 C0.74378837 22.91367588 -1.37353544 21.76654035 -3.5 20.4375 C-5.7421556 19.14826053 -7.48078813 18.46652072 -10 18 C-10.75 15.25 -10.75 15.25 -11 12 C-9.0625 9.625 -9.0625 9.625 -7 8 Z " fill="#2394D2" transform="translate(67,82)"/>
<path d="M0 0 C0.2475 0.598125 0.495 1.19625 0.75 1.8125 C1.86339135 4.1236962 1.86339135 4.1236962 4.0625 5.4375 C6.62451038 7.5036374 6.56086709 8.77969196 7 12 C7.350625 13.216875 7.70125 14.43375 8.0625 15.6875 C9 19 9 19 9 21 C9.66 21.33 10.32 21.66 11 22 C7.08255363 21.45337958 3.48154223 20.93419013 0 19 C-2.68041171 14.78792446 -2.45441907 9.83257208 -2 5 C-1 1.9375 -1 1.9375 0 0 Z " fill="#1B7AC3" transform="translate(51,102)"/>
<path d="M0 0 C2.68247184 2.68247184 4 4.12775536 4 8 C4.33 9.32 4.66 10.64 5 12 C0.545 15.465 0.545 15.465 -4 19 C-4 18.01 -4 17.02 -4 16 C-4.61650432 14.25232033 -5.28879761 12.52383076 -6 10.8125 C-6.37125 9.91144531 -6.7425 9.01039062 -7.125 8.08203125 C-7.41375 7.39496094 -7.7025 6.70789062 -8 6 C-5.36 4.02 -2.72 2.04 0 0 Z " fill="#029AE4" transform="translate(82,55)"/>
<path d="M0 0 C3.67044251 2.93635401 4.88120598 5.64027637 5.81640625 10.109375 C6.0672746 12.69278524 5.54914108 13.93447856 4 16 C3.46375 16.7425 2.9275 17.485 2.375 18.25 C1.694375 19.11625 1.694375 19.11625 1 20 C0.34 19.67 -0.32 19.34 -1 19 C-1.7013284 16.67684969 -2.36485174 14.34210921 -3 12 C-3.391875 11.278125 -3.78375 10.55625 -4.1875 9.8125 C-5 8 -5 8 -4.875 6 C-3.73959163 3.40478086 -2.08514322 1.88335517 0 0 Z " fill="#0079BC" transform="translate(54,77)"/>
<path d="M0 0 C1.33333333 2.66666667 2.66666667 5.33333333 4 8 C2.68 9.32 1.36 10.64 0 12 C0.66 13.98 1.32 15.96 2 18 C1.67 18.33 1.34 18.66 1 19 C-5.6 18.4 -5.6 18.4 -8 16 C-8.1422727 9.02863761 -4.4198612 5.08918744 0 0 Z " fill="#44286F" transform="translate(71,104)"/>
<path d="M0 0 C0.66 0.33 1.32 0.66 2 1 C1.01 2.485 1.01 2.485 0 4 C0.309375 4.5775 0.61875 5.155 0.9375 5.75 C1.92583364 7.84294184 2.5168613 9.74535275 3 12 C4.32 12 5.64 12 7 12 C7.33 13.98 7.66 15.96 8 18 C6.68 18.99 5.36 19.98 4 21 C-1.59773371 15.69688385 -1.59773371 15.69688385 -3 12 C-3 11.34 -3 10.68 -3 10 C-4.32 9.67 -5.64 9.34 -7 9 C-7 6 -7 6 -5.46875 4.39453125 C-4.49421875 3.61142578 -4.49421875 3.61142578 -3.5 2.8125 C-2.8503125 2.28269531 -2.200625 1.75289063 -1.53125 1.20703125 C-1.0259375 0.80871094 -0.520625 0.41039063 0 0 Z " fill="#31A7DF" transform="translate(75,75)"/>
<path d="M0 0 C0.59772099 2.9829661 0.74337815 5.96330805 1 9 C-2.96 9.66 -6.92 10.32 -11 11 C-11.66 8.03 -12.32 5.06 -13 2 C-11.21089097 1.47044766 -9.41860852 0.9516063 -7.625 0.4375 C-6.62726563 0.14746094 -5.62953125 -0.14257812 -4.6015625 -0.44140625 C-2 -1 -2 -1 0 0 Z " fill="#61287B" transform="translate(83,112)"/>
<path d="M0 0 C1.50433594 0.01353516 1.50433594 0.01353516 3.0390625 0.02734375 C3.80992187 0.03894531 4.58078125 0.05054687 5.375 0.0625 C5.705 1.3825 6.035 2.7025 6.375 4.0625 C4.7540787 5.23482685 3.12813167 6.4002077 1.5 7.5625 C0.59507812 8.2121875 -0.30984375 8.861875 -1.2421875 9.53125 C-3.625 11.0625 -3.625 11.0625 -5.625 11.0625 C-6.94126692 7.44276598 -7.625 4.96682869 -7.625 1.0625 C-4.98041621 -0.25979189 -2.94738699 -0.03427194 0 0 Z " fill="#55267C" transform="translate(127.625,87.9375)"/>
<path d="M0 0 C2.14453125 0.00390625 2.14453125 0.00390625 4 1 C5.01171875 2.77734375 5.01171875 2.77734375 5.6875 4.9375 C5.91824219 5.64777344 6.14898437 6.35804687 6.38671875 7.08984375 C6.58910156 7.72019531 6.79148437 8.35054687 7 9 C7.33 9.66 7.66 10.32 8 11 C2.25 15 2.25 15 0 15 C-1.32 11.37 -2.64 7.74 -4 4 C-2.68 2.68 -1.36 1.36 0 0 Z " fill="#C3266C" transform="translate(114,104)"/>
<path d="M0 0 C0.99 0.33 1.98 0.66 3 1 C4.56648566 4.627651 5.7447177 8.063635 5 12 C2.5 13.8125 2.5 13.8125 0 15 C-2.86544183 11.76080489 -3.34536289 9.20838141 -4 5 C-4.66 4.67 -5.32 4.34 -6 4 C-3.1875 1.9375 -3.1875 1.9375 0 0 Z " fill="#D92C72" transform="translate(132,107)"/>
<path d="M0 0 C1.96875 0.90625 1.96875 0.90625 3.015625 3.19140625 C3.24765625 4.10792969 3.4796875 5.02445312 3.71875 5.96875 C3.96109375 6.88785156 4.2034375 7.80695313 4.453125 8.75390625 C4.62328125 9.46417969 4.7934375 10.17445312 4.96875 10.90625 C3.64875 11.89625 2.32875 12.88625 0.96875 13.90625 C-1.70701692 12.90007318 -2.8097608 12.36410454 -4.078125 9.7421875 C-4.31015625 8.93007812 -4.5421875 8.11796875 -4.78125 7.28125 C-5.02359375 6.46398437 -5.2659375 5.64671875 -5.515625 4.8046875 C-5.77085938 3.86496094 -5.77085938 3.86496094 -6.03125 2.90625 C-2.63979301 -0.1218366 -2.63979301 -0.1218366 0 0 Z " fill="#B52369" transform="translate(122.03125,100.09375)"/>
<path d="M0 0 C1.78125 1.828125 1.78125 1.828125 3.5 4.25 C5.80295441 7.45320022 8.14529512 10.27050148 11 13 C-4.81818182 8.16666667 -4.81818182 8.16666667 -7.5 3.25 C-7.665 2.5075 -7.83 1.765 -8 1 C-5.10765685 0.17361624 -3.11257569 0 0 0 Z " fill="#A71A55" transform="translate(109,173)"/>
<path d="M0 0 C2.0625 1.625 2.0625 1.625 4 4 C4.08682234 8.08064997 3.33539891 9.62046965 0.625 12.6875 C-0.24125 13.450625 -1.1075 14.21375 -2 15 C-2.556875 15.598125 -3.11375 16.19625 -3.6875 16.8125 C-5 18 -5 18 -7 18 C-7.33 18.66 -7.66 19.32 -8 20 C-7.07917776 15.21172435 -4.60415977 11.16184572 -2.375 6.875 C-1.25148492 4.5258321 -0.48811662 2.53820643 0 0 Z " fill="#4CCFE1" transform="translate(130,17)"/>
<path d="M0 0 C1.57356827 3.14713654 0.49735424 6.17040482 -0.125 9.5 C-0.23070313 10.18964844 -0.33640625 10.87929687 -0.4453125 11.58984375 C-0.8203125 13.59375 -0.8203125 13.59375 -2 17 C-4.6171875 18.46875 -4.6171875 18.46875 -7 19 C-7.95551713 11.83362154 -4.72623082 6.96609809 -1 1 C-0.67 0.67 -0.34 0.34 0 0 Z " fill="#5B184A" transform="translate(106,144)"/>
<path d="M0 0 C0.99 3.63 1.98 7.26 3 11 C1.68 11.99 0.36 12.98 -1 14 C-1.20496094 13.30132812 -1.40992188 12.60265625 -1.62109375 11.8828125 C-1.89050781 10.97273438 -2.15992188 10.06265625 -2.4375 9.125 C-2.70433594 8.22007813 -2.97117188 7.31515625 -3.24609375 6.3828125 C-3.92613826 4.01724619 -3.92613826 4.01724619 -5 2 C-2 0 -2 0 0 0 Z " fill="#C2256B" transform="translate(138,104)"/>
<path d="M0 0 C0.99 0 1.98 0 3 0 C3 0.99 3 1.98 3 3 C3.66 3.33 4.32 3.66 5 4 C5.98334755 6.85170789 6 8.89640609 6 12 C5.01 12.33 4.02 12.66 3 13 C-0.42857143 4.57142857 -0.42857143 4.57142857 0 0 Z " fill="#E13379" transform="translate(125,112)"/>
<path d="M0 0 C0.99 0.33 1.98 0.66 3 1 C4.62323754 4.75907641 5.23994929 7.92086213 5 12 C4.01 12.33 3.02 12.66 2 13 C0.68 9.04 -0.64 5.08 -2 1 C-1.34 0.67 -0.68 0.34 0 0 Z " fill="#CE2870" transform="translate(132,107)"/>
<path d="M0 0 C0.66 0.33 1.32 0.66 2 1 C2.4140625 3.06640625 2.4140625 3.06640625 2.625 5.5625 C2.69976562 6.38878906 2.77453125 7.21507813 2.8515625 8.06640625 C2.90054688 8.70449219 2.94953125 9.34257813 3 10 C1.68 10 0.36 10 -1 10 C-1.99 7.69 -2.98 5.38 -4 3 C-2.68 2.01 -1.36 1.02 0 0 Z " fill="#6C2A82" transform="translate(81,111)"/>
<path d="M0 0 C0 0.99 0 1.98 0 3 C0.31088368 4.67099977 0.64080332 6.33871537 1 8 C-0.32 8.33 -1.64 8.66 -3 9 C-3.99 6.03 -4.98 3.06 -6 0 C-3 -1 -3 -1 0 0 Z " fill="#532670" transform="translate(72,114)"/>
<path d="M0 0 C0.33 0 0.66 0 1 0 C1 3.63 1 7.26 1 11 C-0.65 11.66 -2.3 12.32 -4 13 C-4.33 11.68 -4.66 10.36 -5 9 C-3.35 8.34 -1.7 7.68 0 7 C0 4.69 0 2.38 0 0 Z " fill="#781859" transform="translate(104,154)"/>
<path d="M0 0 C1.65 0 3.3 0 5 0 C5.625 1.875 5.625 1.875 6 4 C5.34 4.66 4.68 5.32 4 6 C3.01 6 2.02 6 1 6 C0.67 4.02 0.34 2.04 0 0 Z " fill="#47256B" transform="translate(128,88)"/>
<path d="M0 0 C2.66355234 -0.39169887 4.39224373 -0.40564529 6.66796875 1.11328125 C8.1510888 2.36389317 9.57954352 3.67864514 11 5 C10.01 5.495 10.01 5.495 9 6 C6.8359375 5.22265625 6.8359375 5.22265625 4.375 4.0625 C3.55773437 3.68222656 2.74046875 3.30195313 1.8984375 2.91015625 C1.27195312 2.60980469 0.64546875 2.30945313 0 2 C0 1.34 0 0.68 0 0 Z " fill="#C31B65" transform="translate(109,180)"/>
<path d="M0 0 C1.65 0.33 3.3 0.66 5 1 C5.33 1.99 5.66 2.98 6 4 C3.125 4.625 3.125 4.625 0 5 C-0.66 4.34 -1.32 3.68 -2 3 C-1.34 2.01 -0.68 1.02 0 0 Z " fill="#B21B5B" transform="translate(107,176)"/>
<path d="M0 0 C0.33 0.66 0.66 1.32 1 2 C2.32 1.67 3.64 1.34 5 1 C5 2.32 5 3.64 5 5 C3.35 5.66 1.7 6.32 0 7 C0 4.69 0 2.38 0 0 Z " fill="#691948" transform="translate(99,156)"/>
</svg>
